ffmpeg started on 2025-06-21 at 12:44:59
Report written to "D:\Convert\FFMetrics\reports\ssim_report-6.txt"
Log level: 32
Command line:
ffmpeg -hide_banner -nostdin -i "G:\\\xc0\xed\xe8\xec\xe5\\[\xd2\xee\xef-4]\\\xc4\xe5\xf0\xe6\xe0\xf1\xfc \xc7\xe0 \xd0\xf3\xea\xe8\\Hand_Shakers_[11]_[AniLibria.TV]_[HDTV-Rip_720p]_HEVC.mkv" -i "G:\\\xc0\xed\xe8\xec\xe5\\[\xd2\xee\xef-4]\\\xc4\xe5\xf0\xe6\xe0\xf1\xfc \xc7\xe0 \xd0\xf3\xea\xe8\\Hand_Shakers_[11]_[AniLibria.TV]_[HDTV-Rip_720p].mkv" -lavfi "[0:v]settb=AVTB,setpts=PTS-STARTPTS,format=pix_fmts=yuv420p10,fps=30000/1001,scale=1280:720:flags=bicubic[main];[1:v]settb=AVTB,setpts=PTS-STARTPTS,format=pix_fmts=yuv420p,fps=30000/1001,scale=1280:720:flags=bicubic[ref];[main][ref]ssim=eof_action=endall:stats_file='D\\:/Convert/FFMetrics/logs/ssim_logfile-6.txt'" -f null -
Input #0, matroska,webm, from 'G:\Аниме\[Топ-4]\Держась За Руки\Hand_Shakers_[11]_[AniLibria.TV]_[HDTV-Rip_720p]_HEVC.mkv':
  Metadata:
    ENCODER         : Lavf61.7.100
  Duration: 00:23:59.94, start: -0.021000, bitrate: 1624 kb/s
  Stream #0:0(jpn): Video: hevc (Main 10), yuv420p10le(tv, bt709, progressive), 1280x720 [SAR 1:1 DAR 16:9], 29.97 fps, 29.97 tbr, 1k tbn (default)
      Metadata:
        ENCODER         : Lavc61.19.100 libx265
        BPS             : 1425396
        DURATION        : 00:23:59.805366664
        NUMBER_OF_FRAMES: 43151
        NUMBER_OF_BYTES : 256536640
        _STATISTICS_WRITING_APP: mkvpropedit v66.0.0 ('Josie') 64-bit
        _STATISTICS_WRITING_DATE_UTC: 2025-06-20 17:40:31
        _STATISTICS_TAGS: BPS DURATION NUMBER_OF_FRAMES NUMBER_OF_BYTES
  Stream #0:1(rus): Audio: aac (LC), 48000 Hz, stereo, fltp (default) (forced)
      Metadata:
        title           : Амикири и Анзен
        ENCODER         : Lavc61.19.100 aac
        BPS             : 194559
        DURATION        : 00:23:59.914000000
        NUMBER_OF_FRAMES: 67497
        NUMBER_OF_BYTES : 35018703
        _STATISTICS_WRITING_APP: mkvpropedit v66.0.0 ('Josie') 64-bit
        _STATISTICS_WRITING_DATE_UTC: 2025-06-20 17:40:31
        _STATISTICS_TAGS: BPS DURATION NUMBER_OF_FRAMES NUMBER_OF_BYTES
  Stream #0:2(rus): Subtitle: ass (ssa) (default) (forced)
      Metadata:
        title           : Надписи
        BPS             : 10
        DURATION        : 00:22:53.850000000
        NUMBER_OF_FRAMES: 14
        NUMBER_OF_BYTES : 1886
        _STATISTICS_WRITING_APP: mkvpropedit v66.0.0 ('Josie') 64-bit
        _STATISTICS_WRITING_DATE_UTC: 2025-06-20 17:40:31
        _STATISTICS_TAGS: BPS DURATION NUMBER_OF_FRAMES NUMBER_OF_BYTES
  Stream #0:3(rus): Subtitle: ass (ssa)
      Metadata:
        title           : Субтитры
        BPS             : 158
        DURATION        : 00:23:48.140000000
        NUMBER_OF_FRAMES: 362
        NUMBER_OF_BYTES : 28305
        _STATISTICS_WRITING_APP: mkvpropedit v66.0.0 ('Josie') 64-bit
        _STATISTICS_WRITING_DATE_UTC: 2025-06-20 17:40:31
        _STATISTICS_TAGS: BPS DURATION NUMBER_OF_FRAMES NUMBER_OF_BYTES
Input #1, matroska,webm, from 'G:\Аниме\[Топ-4]\Держась За Руки\Hand_Shakers_[11]_[AniLibria.TV]_[HDTV-Rip_720p].mkv':
  Metadata:
    encoder         : libebml v1.4.2 + libmatroska v1.6.4
    creation_time   : 2024-12-27T17:08:16.000000Z
  Duration: 00:23:59.91, start: 0.000000, bitrate: 3726 kb/s
  Stream #1:0(jpn): Video: h264 (High), yuv420p(tv, bt709, progressive), 1280x720 [SAR 1:1 DAR 16:9], 29.97 fps, 29.97 tbr, 1k tbn (default)
      Metadata:
        BPS             : 3533513
        DURATION        : 00:23:59.805000000
        NUMBER_OF_FRAMES: 43151
        NUMBER_OF_BYTES : 635946333
        _STATISTICS_WRITING_APP: mkvmerge v66.0.0 ('Josie') 64-bit
        _STATISTICS_WRITING_DATE_UTC: 2024-12-27 17:08:16
        _STATISTICS_TAGS: BPS DURATION NUMBER_OF_FRAMES NUMBER_OF_BYTES
  Stream #1:1(rus): Audio: aac (LC), 48000 Hz, stereo, fltp (default) (forced)
      Metadata:
        title           : Амикири и Анзен
        BPS             : 189375
        DURATION        : 00:23:59.914000000
        NUMBER_OF_FRAMES: 67496
        NUMBER_OF_BYTES : 34085480
        _STATISTICS_WRITING_APP: mkvmerge v66.0.0 ('Josie') 64-bit
        _STATISTICS_WRITING_DATE_UTC: 2024-12-27 17:08:16
        _STATISTICS_TAGS: BPS DURATION NUMBER_OF_FRAMES NUMBER_OF_BYTES
  Stream #1:2(rus): Subtitle: ass (ssa) (default) (forced)
      Metadata:
        title           : Надписи
        BPS             : 10
        DURATION        : 00:22:53.850000000
        NUMBER_OF_FRAMES: 14
        NUMBER_OF_BYTES : 1886
        _STATISTICS_WRITING_APP: mkvmerge v66.0.0 ('Josie') 64-bit
        _STATISTICS_WRITING_DATE_UTC: 2024-12-27 17:08:16
        _STATISTICS_TAGS: BPS DURATION NUMBER_OF_FRAMES NUMBER_OF_BYTES
  Stream #1:3(rus): Subtitle: ass (ssa)
      Metadata:
        title           : Субтитры
        BPS             : 158
        DURATION        : 00:23:48.140000000
        NUMBER_OF_FRAMES: 362
        NUMBER_OF_BYTES : 28305
        _STATISTICS_WRITING_APP: mkvmerge v66.0.0 ('Josie') 64-bit
        _STATISTICS_WRITING_DATE_UTC: 2024-12-27 17:08:16
        _STATISTICS_TAGS: BPS DURATION NUMBER_OF_FRAMES NUMBER_OF_BYTES
  Stream #1:4: Attachment: ttf
      Metadata:
        filename        : 8289.otf
        mimetype        : application/x-truetype-font
  Stream #1:5: Attachment: ttf
      Metadata:
        filename        : 8651.ttf
        mimetype        : application/x-truetype-font
  Stream #1:6: Attachment: ttf
      Metadata:
        filename        : 10322.ttf
        mimetype        : application/x-truetype-font
  Stream #1:7: Attachment: ttf
      Metadata:
        filename        : 10351.ttf
        mimetype        : application/x-truetype-font
Stream mapping:
  Stream #0:0 (hevc) -> settb:default
  Stream #1:0 (h264) -> settb:default
  ssim:default -> Stream #0:0 (wrapped_avframe)
  Stream #0:1 -> #0:1 (aac (native) -> pcm_s16le (native))
Output #0, null, to 'pipe:':
  Metadata:
    encoder         : Lavf61.7.100
  Stream #0:0: Video: wrapped_avframe, yuv420p10le(tv, bt709, progressive), 1280x720 [SAR 1:1 DAR 16:9], q=2-31, 200 kb/s, 29.97 fps, 29.97 tbn
      Metadata:
        encoder         : Lavc61.19.100 wrapped_avframe
  Stream #0:1(rus): Audio: pcm_s16le, 48000 Hz, stereo, s16, 1536 kb/s (default) (forced)
      Metadata:
        title           : Амикири и Анзен
        _STATISTICS_TAGS: BPS DURATION NUMBER_OF_FRAMES NUMBER_OF_BYTES
        BPS             : 194559
        DURATION        : 00:23:59.914000000
        NUMBER_OF_FRAMES: 67497
        NUMBER_OF_BYTES : 35018703
        _STATISTICS_WRITING_APP: mkvpropedit v66.0.0 ('Josie') 64-bit
        _STATISTICS_WRITING_DATE_UTC: 2025-06-20 17:40:31
        encoder         : Lavc61.19.100 pcm_s16le
frame=  307 fps=0.0 q=-0.0 size=N/A time=00:00:10.24 bitrate=N/A speed=19.9x    frame=  634 fps=620 q=-0.0 size=N/A time=00:00:21.15 bitrate=N/A speed=20.7x    frame= 1086 fps=704 q=-0.0 size=N/A time=00:00:36.23 bitrate=N/A speed=23.5x    frame= 1532 fps=744 q=-0.0 size=N/A time=00:00:51.11 bitrate=N/A speed=24.8x    frame= 1790 fps=696 q=-0.0 size=N/A time=00:00:59.72 bitrate=N/A speed=23.2x    frame= 2034 fps=659 q=-0.0 size=N/A time=00:01:07.86 bitrate=N/A speed=  22x    frame= 2286 fps=635 q=-0.0 size=N/A time=00:01:16.27 bitrate=N/A speed=21.2x    frame= 2536 fps=615 q=-0.0 size=N/A time=00:01:24.61 bitrate=N/A speed=20.5x    frame= 2772 fps=598 q=-0.0 size=N/A time=00:01:32.49 bitrate=N/A speed=  20x    frame= 3007 fps=584 q=-0.0 size=N/A time=00:01:40.33 bitrate=N/A speed=19.5x    frame= 3208 fps=566 q=-0.0 size=N/A time=00:01:47.04 bitrate=N/A speed=18.9x    frame= 3435 fps=556 q=-0.0 size=N/A time=00:01:54.61 bitrate=N/A speed=18.5x    frame= 3667 fps=547 q=-0.0 size=N/A time=00:02:02.35 bitrate=N/A speed=18.3x    frame= 3931 fps=545 q=-0.0 size=N/A time=00:02:11.16 bitrate=N/A speed=18.2x    frame= 4157 fps=538 q=-0.0 size=N/A time=00:02:18.70 bitrate=N/A speed=  18x    frame= 4606 fps=559 q=-0.0 size=N/A time=00:02:33.68 bitrate=N/A speed=18.6x    frame= 5050 fps=577 q=-0.0 size=N/A time=00:02:48.50 bitrate=N/A speed=19.2x    frame= 5439 fps=586 q=-0.0 size=N/A time=00:03:01.48 bitrate=N/A speed=19.6x    frame= 5943 fps=607 q=-0.0 size=N/A time=00:03:18.29 bitrate=N/A speed=20.3x    frame= 6512 fps=631 q=-0.0 size=N/A time=00:03:37.28 bitrate=N/A speed=21.1x    frame= 7002 fps=646 q=-0.0 size=N/A time=00:03:53.63 bitrate=N/A speed=21.6x    frame= 7514 fps=663 q=-0.0 size=N/A time=00:04:10.71 bitrate=N/A speed=22.1x    frame= 8051 fps=679 q=-0.0 size=N/A time=00:04:28.63 bitrate=N/A speed=22.7x    frame= 8596 fps=694 q=-0.0 size=N/A time=00:04:46.81 bitrate=N/A speed=23.2x    frame= 9009 fps=699 q=-0.0 size=N/A time=00:05:00.60 bitrate=N/A speed=23.3x    frame= 9481 fps=708 q=-0.0 size=N/A time=00:05:16.34 bitrate=N/A speed=23.6x    frame= 9974 fps=717 q=-0.0 size=N/A time=00:05:32.79 bitrate=N/A speed=23.9x    frame=10494 fps=727 q=-0.0 size=N/A time=00:05:50.14 bitrate=N/A speed=24.2x    frame=11064 fps=740 q=-0.0 size=N/A time=00:06:09.16 bitrate=N/A speed=24.7x    frame=11474 fps=742 q=-0.0 size=N/A time=00:06:22.84 bitrate=N/A speed=24.7x    frame=11980 fps=749 q=-0.0 size=N/A time=00:06:39.73 bitrate=N/A speed=  25x    frame=12624 fps=765 q=-0.0 size=N/A time=00:07:01.22 bitrate=N/A speed=25.5x    frame=13237 fps=778 q=-0.0 size=N/A time=00:07:21.67 bitrate=N/A speed=25.9x    frame=13808 fps=787 q=-0.0 size=N/A time=00:07:40.72 bitrate=N/A speed=26.2x    frame=14304 fps=792 q=-0.0 size=N/A time=00:07:57.27 bitrate=N/A speed=26.4x    frame=14810 fps=796 q=-0.0 size=N/A time=00:08:14.16 bitrate=N/A speed=26.6x    frame=15191 fps=795 q=-0.0 size=N/A time=00:08:26.87 bitrate=N/A speed=26.5x    frame=15643 fps=797 q=-0.0 size=N/A time=00:08:41.95 bitrate=N/A speed=26.6x    frame=16109 fps=800 q=-0.0 size=N/A time=00:08:57.50 bitrate=N/A speed=26.7x    frame=16585 fps=803 q=-0.0 size=N/A time=00:09:13.38 bitrate=N/A speed=26.8x    frame=17017 fps=804 q=-0.0 size=N/A time=00:09:27.80 bitrate=N/A speed=26.8x    frame=17584 fps=811 q=-0.0 size=N/A time=00:09:46.71 bitrate=N/A speed=27.1x    frame=18096 fps=815 q=-0.0 size=N/A time=00:10:03.80 bitrate=N/A speed=27.2x    frame=18423 fps=811 q=-0.0 size=N/A time=00:10:14.71 bitrate=N/A speed=27.1x    frame=18919 fps=814 q=-0.0 size=N/A time=00:10:31.26 bitrate=N/A speed=27.2x    frame=19176 fps=807 q=-0.0 size=N/A time=00:10:39.83 bitrate=N/A speed=26.9x    frame=19529 fps=805 q=-0.0 size=N/A time=00:10:51.61 bitrate=N/A speed=26.9x    frame=19941 fps=805 q=-0.0 size=N/A time=00:11:05.36 bitrate=N/A speed=26.9x    frame=20381 fps=806 q=-0.0 size=N/A time=00:11:20.04 bitrate=N/A speed=26.9x    frame=20949 fps=812 q=-0.0 size=N/A time=00:11:38.99 bitrate=N/A speed=27.1x    frame=21504 fps=817 q=-0.0 size=N/A time=00:11:57.51 bitrate=N/A speed=27.3x    frame=22112 fps=824 q=-0.0 size=N/A time=00:12:17.80 bitrate=N/A speed=27.5x    frame=22615 fps=827 q=-0.0 size=N/A time=00:12:34.58 bitrate=N/A speed=27.6x    frame=23168 fps=831 q=-0.0 size=N/A time=00:12:53.03 bitrate=N/A speed=27.7x    frame=23729 fps=836 q=-0.0 size=N/A time=00:13:11.75 bitrate=N/A speed=27.9x    frame=23999 fps=830 q=-0.0 size=N/A time=00:13:20.76 bitrate=N/A speed=27.7x    frame=24258 fps=823 q=-0.0 size=N/A time=00:13:29.40 bitrate=N/A speed=27.5x    frame=24633 fps=822 q=-0.0 size=N/A time=00:13:41.92 bitrate=N/A speed=27.4x    frame=25139 fps=825 q=-0.0 size=N/A time=00:13:58.80 bitrate=N/A speed=27.5x    frame=25654 fps=827 q=-0.0 size=N/A time=00:14:15.98 bitrate=N/A speed=27.6x    frame=26163 fps=830 q=-0.0 size=N/A time=00:14:32.97 bitrate=N/A speed=27.7x    frame=26707 fps=834 q=-0.0 size=N/A time=00:14:51.12 bitrate=N/A speed=27.8x    frame=27288 fps=839 q=-0.0 size=N/A time=00:15:10.50 bitrate=N/A speed=  28x    frame=27837 fps=842 q=-0.0 size=N/A time=00:15:28.82 bitrate=N/A speed=28.1x    frame=28403 fps=846 q=-0.0 size=N/A time=00:15:47.71 bitrate=N/A speed=28.2x    frame=28992 fps=850 q=-0.0 size=N/A time=00:16:07.36 bitrate=N/A speed=28.4x    frame=29546 fps=854 q=-0.0 size=N/A time=00:16:25.85 bitrate=N/A speed=28.5x    frame=30066 fps=856 q=-0.0 size=N/A time=00:16:43.20 bitrate=N/A speed=28.6x    frame=30654 fps=860 q=-0.0 size=N/A time=00:17:02.82 bitrate=N/A speed=28.7x    frame=31235 fps=864 q=-0.0 size=N/A time=00:17:22.20 bitrate=N/A speed=28.8x    frame=31865 fps=869 q=-0.0 size=N/A time=00:17:43.22 bitrate=N/A speed=  29x    frame=32315 fps=869 q=-0.0 size=N/A time=00:17:58.24 bitrate=N/A speed=  29x    frame=32851 fps=871 q=-0.0 size=N/A time=00:18:16.12 bitrate=N/A speed=29.1x    frame=33435 fps=875 q=-0.0 size=N/A time=00:18:35.61 bitrate=N/A speed=29.2x    frame=33932 fps=876 q=-0.0 size=N/A time=00:18:52.19 bitrate=N/A speed=29.2x    frame=34462 fps=878 q=-0.0 size=N/A time=00:19:09.88 bitrate=N/A speed=29.3x    frame=35019 fps=881 q=-0.0 size=N/A time=00:19:28.46 bitrate=N/A speed=29.4x    frame=35529 fps=882 q=-0.0 size=N/A time=00:19:45.48 bitrate=N/A speed=29.4x    frame=36072 fps=884 q=-0.0 size=N/A time=00:20:03.60 bitrate=N/A speed=29.5x    frame=36610 fps=886 q=-0.0 size=N/A time=00:20:21.55 bitrate=N/A speed=29.6x    frame=37155 fps=888 q=-0.0 size=N/A time=00:20:39.73 bitrate=N/A speed=29.6x    frame=37658 fps=889 q=-0.0 size=N/A time=00:20:56.52 bitrate=N/A speed=29.7x    frame=38041 fps=887 q=-0.0 size=N/A time=00:21:09.30 bitrate=N/A speed=29.6x    frame=38380 fps=885 q=-0.0 size=N/A time=00:21:20.61 bitrate=N/A speed=29.5x    frame=38659 fps=880 q=-0.0 size=N/A time=00:21:29.92 bitrate=N/A speed=29.4x    frame=38937 fps=877 q=-0.0 size=N/A time=00:21:39.19 bitrate=N/A speed=29.2x    frame=39319 fps=875 q=-0.0 size=N/A time=00:21:51.94 bitrate=N/A speed=29.2x    frame=39691 fps=873 q=-0.0 size=N/A time=00:22:04.35 bitrate=N/A speed=29.1x    frame=40069 fps=872 q=-0.0 size=N/A time=00:22:16.96 bitrate=N/A speed=29.1x    frame=40300 fps=867 q=-0.0 size=N/A time=00:22:24.67 bitrate=N/A speed=28.9x    frame=40609 fps=864 q=-0.0 size=N/A time=00:22:34.98 bitrate=N/A speed=28.8x    frame=40928 fps=861 q=-0.0 size=N/A time=00:22:45.63 bitrate=N/A speed=28.7x    frame=41310 fps=860 q=-0.0 size=N/A time=00:22:58.37 bitrate=N/A speed=28.7x    frame=41691 fps=859 q=-0.0 size=N/A time=00:23:11.08 bitrate=N/A speed=28.7x    frame=42095 fps=858 q=-0.0 size=N/A time=00:23:24.56 bitrate=N/A speed=28.6x    frame=42399 fps=855 q=-0.0 size=N/A time=00:23:34.71 bitrate=N/A speed=28.5x    frame=42738 fps=853 q=-0.0 size=N/A time=00:23:46.02 bitrate=N/A speed=28.5x    [Parsed_ssim_10 @ 0000020bda6bdec0] SSIM Y:0.988062 (19.230790) U:0.986309 (18.635563) V:0.988509 (19.396582) All:0.987845 (19.152291)
[out#0/null @ 0000020bd86c7b40] video:18541KiB audio:269988KiB subtitle:0KiB other streams:0KiB global headers:0KiB muxing overhead: unknown
frame=43151 fps=853 q=-0.0 Lsize=N/A time=00:23:59.80 bitrate=N/A speed=28.5x    
